<?xml version="1.0" encoding="utf-8"?>
<!-- Generator: Adobe Illustrator 27.5.0, SVG Export Plug-In . SVG Version: 6.00 Build 0)  -->
<svg version="1.1" xmlns="http://www.w3.org/2000/svg" xmlns:xlink="http://www.w3.org/1999/xlink" x="0px" y="0px"
	 viewBox="0 0 500 500" style="enable-background:new 0 0 500 500;" xml:space="preserve">
<g id="BACKGROUND">
	<g>
		<rect style="fill:#F9FBFC;" width="500" height="500"/>
	</g>
</g>
<g id="OBJECTS">
	<rect x="50.529" y="363.173" style="fill:none;" width="398.943" height="120.163"/>
	<text transform="matrix(1 0 0 1 148.4637 372.0773)"><tspan x="0" y="0" style="font-family:'Montserrat-Medium'; font-size:12px; letter-spacing:1;">Lorem ipsum dolor sit amet, </tspan><tspan x="-1.068" y="14.399" style="font-family:'Montserrat-Medium'; font-size:12px; letter-spacing:1;">consectetuer adipiscing elit.</tspan></text>
	<g>
		<g>
			<path style="fill:#1D262D;" d="M292.21,279.828c7.716,3.486,14.951,7.894,21.589,13.176c8.745-9.288,15.221-20.138,19.185-31.909
				H298.65C297.053,267.462,294.909,273.716,292.21,279.828z"/>
			<path style="fill:#1D262D;" d="M254.79,280.375v34.114c9.739-8.3,17.959-18.336,24.194-29.544
				C271.091,282.339,262.991,280.803,254.79,280.375z"/>
			<path style="fill:#1D262D;" d="M263.499,319.582c15.97-2.472,30.903-9.325,43.273-19.897c-5.803-4.484-12.084-8.26-18.772-11.256
				C281.663,300.129,273.348,310.689,263.499,319.582z"/>
			<path style="fill:#1D262D;" d="M285.411,173.156c6.234-2.561,12.114-5.77,17.587-9.563c-11.576-8.826-25.154-14.621-39.46-16.87
				C272.093,154.432,279.505,163.379,285.411,173.156z"/>
			<path style="fill:#1D262D;" d="M254.79,270.778c9.683,0.457,19.24,2.308,28.519,5.51c2.212-4.969,4.022-10.039,5.44-15.193
				H254.79V270.778z"/>
			<path style="fill:#1D262D;" d="M281.004,184.941c-8.605,2.747-17.389,4.344-26.214,4.769v15.499h33.986
				C286.88,198.221,284.284,191.421,281.004,184.941z"/>
			<path style="fill:#1D262D;" d="M310.513,170.022c-6.331,4.624-13.197,8.489-20.486,11.572c3.731,7.543,6.619,15.471,8.637,23.616
				h34.249C328.426,191.986,320.798,179.882,310.513,170.022z"/>
			<path style="fill:#1D262D;" d="M254.79,151.786v28.329c7.182-0.383,14.337-1.632,21.378-3.72
				C270.38,167.215,263.127,158.875,254.79,151.786z"/>
			<path style="fill:#1D262D;" d="M186.203,293.004c6.634-5.28,13.868-9.687,21.586-13.175c-2.699-6.112-4.843-12.366-6.439-18.734
				h-34.333C170.98,272.864,177.457,283.714,186.203,293.004z"/>
			<path style="fill:#1D262D;" d="M209.973,181.594c-7.289-3.083-14.155-6.948-20.486-11.572
				c-10.286,9.86-17.913,21.964-22.4,35.188h34.249C203.354,197.064,206.242,189.136,209.973,181.594z"/>
			<path style="fill:#1D262D;" d="M245.214,180.115v-28.33c-8.335,7.087-15.589,15.427-21.381,24.61
				C230.875,178.483,238.031,179.733,245.214,180.115z"/>
			<path style="fill:#1D262D;" d="M245.214,314.491v-34.116c-8.203,0.428-16.305,1.964-24.197,4.57
				C227.252,296.155,235.473,306.191,245.214,314.491z"/>
			<path style="fill:#1D262D;" d="M216.691,276.288c9.279-3.202,18.837-5.053,28.522-5.51v-9.683h-33.963
				C212.669,266.248,214.479,271.319,216.691,276.288z"/>
			<path style="fill:#1D262D;" d="M212,288.428c-6.69,2.997-12.97,6.773-18.77,11.255c12.369,10.573,27.302,17.426,43.273,19.898
				C226.652,310.689,218.337,300.13,212,288.428z"/>
			<path style="fill:#1D262D;" d="M245.214,189.71c-8.827-0.425-17.612-2.022-26.217-4.769c-3.281,6.48-5.877,13.279-7.772,20.268
				h33.99V189.71z"/>
			<path style="fill:#1D262D;" d="M236.465,146.722c-14.307,2.248-27.887,8.043-39.463,16.87c5.473,3.793,11.354,7.003,17.588,9.564
				C220.499,163.377,227.911,154.43,236.465,146.722z"/>
		</g>
	</g>
	
		<text transform="matrix(1 0 0 1 182.2208 246.2224)" style="fill:#1D262D; font-family:'Montserrat-Black'; font-size:35.9765px; letter-spacing:1;">WWW</text>
</g>
<g id="DESIGNED_BY_FREEPIK">
	<g>
		<g id="XMLID_253_">
			<g id="XMLID_272_">
				<path id="XMLID_280_" style="fill:#1D262D;" d="M260.104,465.328c-0.432,0.443-0.803,0.931-1.108,1.453l-0.465-0.241
					c-0.067-0.298-0.349-0.503-0.659-0.466c-0.331,0.039-0.568,0.339-0.529,0.67c0.039,0.331,0.339,0.568,0.67,0.529
					c0.065-0.008,0.127-0.026,0.184-0.052l0.451,0.234c-0.251,0.554-0.433,1.139-0.539,1.744l0.747,0.132
					c0.23-1.306,0.85-2.507,1.792-3.473L260.104,465.328z"/>
				<path id="XMLID_279_" style="fill:#1D262D;" d="M265.592,463.026c-0.171,0-0.341,0.006-0.51,0.017l-0.074-0.626
					c0.188-0.149,0.296-0.389,0.266-0.645c-0.046-0.393-0.402-0.674-0.795-0.628c-0.393,0.046-0.674,0.402-0.628,0.795
					c0.03,0.254,0.189,0.461,0.405,0.564l0.073,0.624c-0.714,0.116-1.403,0.332-2.06,0.646l0.327,0.684
					c0.934-0.447,1.942-0.673,2.995-0.673c0.496,0,0.993,0.053,1.475,0.158l0.161-0.741
					C266.692,463.085,266.142,463.026,265.592,463.026z"/>
				<path id="XMLID_278_" style="fill:#1D262D;" d="M272.194,465.574c0.331-0.04,0.566-0.341,0.526-0.672
					c-0.04-0.331-0.341-0.566-0.672-0.526c-0.309,0.038-0.535,0.304-0.53,0.609l-0.416,0.363c-0.418-0.43-0.89-0.813-1.408-1.139
					l-0.404,0.641c1.134,0.715,2.021,1.726,2.563,2.925l0.69-0.313c-0.251-0.554-0.567-1.072-0.942-1.545l0.402-0.351
					C272.065,465.579,272.129,465.582,272.194,465.574z"/>
				<path id="XMLID_277_" style="fill:#1D262D;" d="M265.044,473.235c-0.386,0.023-0.775,0.035-1.157,0.035
					c-0.88,0-1.733-0.061-2.478-0.179c-0.39-0.062-0.846-0.155-1.27-0.292c1.046,1.861,3.069,3.125,5.388,3.125
					c2.855,0,5.262-1.916,5.95-4.504c-0.682,0.449-1.505,0.825-2.459,1.123C267.839,472.91,266.463,473.15,265.044,473.235z"/>
				<path id="XMLID_273_" style="fill:#1D262D;" d="M265.592,464.543c-3.352,0-6.08,2.666-6.08,5.944
					c0,0.425,0.046,0.849,0.137,1.261c0.673,0.483,2.706,0.89,5.348,0.731c2.879-0.173,5.297-0.957,6.672-2.159
					c-0.005-0.195-0.021-0.39-0.045-0.582C271.244,466.776,268.65,464.543,265.592,464.543z M263.432,471.057
					c-1.02,0-1.85-0.83-1.85-1.85c0-1.02,0.83-1.85,1.85-1.85c1.02,0,1.85,0.83,1.85,1.85
					C265.282,470.228,264.452,471.057,263.432,471.057z M268.17,470.149c-0.75,0-1.36-0.61-1.36-1.36s0.61-1.361,1.36-1.361
					c0.75,0,1.361,0.61,1.361,1.361S268.92,470.149,268.17,470.149z"/>
			</g>
			<path id="XMLID_270_" style="fill:#1D262D;" d="M281.595,466.41c-0.295-0.116-0.805-0.309-1.382-0.237
				c-0.551,0.069-0.844,0.341-0.844,1.007v0.866h2.228v1.717h-2.228v5.455h-1.932v-5.455h-1.34v-1.717h1.34v-0.888
				c0-1.68,0.896-2.783,2.568-2.783c0.643,0,1.157,0.122,1.59,0.308L281.595,466.41z"/>
			<path id="XMLID_268_" style="fill:#1D262D;" d="M286.298,469.742c-0.177-0.03-0.358-0.046-0.526-0.046
				c-0.896,0-1.51,0.548-1.51,1.614v3.908h-1.932v-7.172h1.873v0.785c0.451-0.673,1.14-0.977,2.021-0.977
				c0.414,0,0.848,0.128,1.094,0.337L286.298,469.742z"/>
			<path id="XMLID_265_" style="fill:#1D262D;" d="M293.965,471.62c0,0.222-0.015,0.489-0.037,0.651h-5.085
				c0.207,1.036,0.933,1.488,1.843,1.488c0.622,0,1.295-0.252,1.813-0.688l1.133,1.243c-0.814,0.748-1.85,1.088-3.057,1.088
				c-2.198,0-3.723-1.495-3.723-3.753c0-2.258,1.48-3.797,3.626-3.797C292.544,467.853,293.958,469.385,293.965,471.62z
				 M288.851,470.954h3.175c-0.177-0.918-0.733-1.436-1.562-1.436C289.554,469.518,289.021,470.066,288.851,470.954z"/>
			<path id="XMLID_262_" style="fill:#1D262D;" d="M301.618,471.62c0,0.222-0.015,0.489-0.037,0.651h-5.085
				c0.207,1.036,0.933,1.488,1.843,1.488c0.622,0,1.295-0.252,1.813-0.688l1.132,1.243c-0.814,0.748-1.85,1.088-3.057,1.088
				c-2.198,0-3.723-1.495-3.723-3.753c0-2.258,1.48-3.797,3.627-3.797C300.197,467.853,301.611,469.385,301.618,471.62z
				 M296.504,470.954h3.175c-0.178-0.918-0.733-1.436-1.562-1.436C297.207,469.518,296.674,470.066,296.504,470.954z"/>
			<path id="XMLID_259_" style="fill:#1D262D;" d="M309.964,471.627c0,2.154-1.495,3.775-3.471,3.775
				c-0.962,0-1.643-0.378-2.109-0.933v3.708h-1.924v-10.133h1.887v0.792c0.466-0.585,1.155-0.984,2.139-0.984
				C308.469,467.853,309.964,469.474,309.964,471.627z M304.287,471.627c0,1.132,0.748,1.976,1.843,1.976
				c1.14,0,1.85-0.881,1.85-1.976c0-1.095-0.71-1.976-1.85-1.976C305.035,469.651,304.287,470.495,304.287,471.627z"/>
			<path id="XMLID_256_" style="fill:#1D262D;" d="M313.068,465.699c0,0.696-0.54,1.229-1.236,1.229
				c-0.696,0-1.229-0.533-1.229-1.229c0-0.696,0.533-1.243,1.229-1.243C312.527,464.455,313.068,465.003,313.068,465.699z
				 M312.809,475.217h-1.932v-7.172h1.932V475.217z"/>
			<path id="XMLID_254_" style="fill:#1D262D;" d="M316.032,470.599l2.701-2.554h2.368l-3.479,3.375l3.501,3.797h-2.376
				l-2.716-2.901v2.901H314.1v-10.658h1.932V470.599z"/>
		</g>
		<g>
			<path style="fill:#1D262D;" d="M184.412,475.152v-1.055c-0.527,0.718-1.391,1.23-2.387,1.23c-1.846,0-3.149-1.406-3.149-3.706
				c0-2.256,1.289-3.721,3.149-3.721c0.952,0,1.816,0.469,2.387,1.245v-3.765h1.099v9.77H184.412z M184.412,473.233v-3.208
				c-0.395-0.615-1.245-1.143-2.124-1.143c-1.421,0-2.27,1.172-2.27,2.739c0,1.567,0.85,2.724,2.27,2.724
				C183.168,474.346,184.017,473.849,184.412,473.233z"/>
			<path style="fill:#1D262D;" d="M186.932,471.607c0-2.051,1.465-3.706,3.486-3.706c2.139,0,3.398,1.67,3.398,3.794v0.279h-5.727
				c0.088,1.333,1.025,2.446,2.549,2.446c0.805,0,1.626-0.322,2.182-0.893l0.527,0.718c-0.703,0.703-1.655,1.084-2.812,1.084
				C188.44,475.328,186.932,473.819,186.932,471.607z M190.403,468.81c-1.509,0-2.256,1.274-2.314,2.358h4.643
				C192.718,470.113,192.015,468.81,190.403,468.81z"/>
			<path style="fill:#1D262D;" d="M194.607,474.215l0.571-0.791c0.469,0.542,1.362,1.011,2.329,1.011c1.084,0,1.67-0.513,1.67-1.216
				c0-1.714-4.38-0.659-4.38-3.281c0-1.098,0.952-2.036,2.636-2.036c1.201,0,2.051,0.454,2.622,1.026l-0.513,0.762
				c-0.424-0.513-1.201-0.894-2.109-0.894c-0.967,0-1.567,0.483-1.567,1.113c0,1.552,4.38,0.527,4.38,3.281
				c0,1.187-0.952,2.138-2.783,2.138C196.306,475.328,195.325,474.976,194.607,474.215z"/>
			<path style="fill:#1D262D;" d="M201.477,466.334c0-0.41,0.337-0.747,0.732-0.747c0.41,0,0.747,0.337,0.747,0.747
				c0,0.41-0.337,0.732-0.747,0.732C201.814,467.066,201.477,466.744,201.477,466.334z M201.667,475.152v-7.075h1.099v7.075H201.667
				z"/>
			<path style="fill:#1D262D;" d="M204.582,476.968l0.556-0.82c0.586,0.703,1.289,0.967,2.3,0.967c1.172,0,2.27-0.571,2.27-2.124
				v-1.011c-0.513,0.718-1.377,1.26-2.373,1.26c-1.845,0-3.149-1.377-3.149-3.662c0-2.27,1.289-3.677,3.149-3.677
				c0.952,0,1.802,0.469,2.373,1.245v-1.069h1.098v6.87c0,2.344-1.641,3.076-3.369,3.076
				C206.237,478.023,205.417,477.789,204.582,476.968z M209.709,473.116v-3.091c-0.381-0.615-1.23-1.143-2.109-1.143
				c-1.421,0-2.27,1.128-2.27,2.695c0,1.553,0.849,2.695,2.27,2.695C208.478,474.273,209.328,473.731,209.709,473.116z"/>
			<path style="fill:#1D262D;" d="M217.413,475.152v-4.629c0-1.245-0.63-1.641-1.582-1.641c-0.865,0-1.685,0.527-2.095,1.099v5.17
				h-1.099v-7.075h1.099v1.025c0.498-0.586,1.464-1.201,2.519-1.201c1.48,0,2.256,0.747,2.256,2.285v4.966H217.413z"/>
			<path style="fill:#1D262D;" d="M219.932,471.607c0-2.051,1.465-3.706,3.486-3.706c2.139,0,3.398,1.67,3.398,3.794v0.279h-5.727
				c0.088,1.333,1.025,2.446,2.549,2.446c0.806,0,1.626-0.322,2.183-0.893l0.527,0.718c-0.703,0.703-1.655,1.084-2.812,1.084
				C221.441,475.328,219.932,473.819,219.932,471.607z M223.404,468.81c-1.509,0-2.256,1.274-2.314,2.358h4.643
				C225.718,470.113,225.015,468.81,223.404,468.81z"/>
			<path style="fill:#1D262D;" d="M233.35,475.152v-1.055c-0.527,0.718-1.392,1.23-2.388,1.23c-1.846,0-3.149-1.406-3.149-3.706
				c0-2.256,1.289-3.721,3.149-3.721c0.952,0,1.817,0.469,2.388,1.245v-3.765h1.098v9.77H233.35z M233.35,473.233v-3.208
				c-0.396-0.615-1.245-1.143-2.124-1.143c-1.421,0-2.27,1.172-2.27,2.739c0,1.567,0.849,2.724,2.27,2.724
				C232.105,474.346,232.954,473.849,233.35,473.233z"/>
			<path style="fill:#1D262D;" d="M239.692,475.152v-9.77h1.098v3.765c0.572-0.776,1.421-1.245,2.388-1.245
				c1.845,0,3.149,1.465,3.149,3.721c0,2.299-1.304,3.706-3.149,3.706c-0.996,0-1.86-0.513-2.388-1.23v1.055H239.692z
				 M242.9,474.346c1.436,0,2.285-1.157,2.285-2.724c0-1.568-0.85-2.739-2.285-2.739c-0.864,0-1.728,0.527-2.109,1.143v3.208
				C241.171,473.849,242.036,474.346,242.9,474.346z"/>
			<path style="fill:#1D262D;" d="M247.528,476.924c0.161,0.073,0.425,0.117,0.601,0.117c0.483,0,0.805-0.161,1.055-0.747
				l0.469-1.069l-2.959-7.148h1.187l2.358,5.8l2.344-5.8h1.201l-3.545,8.51c-0.425,1.025-1.143,1.421-2.08,1.435
				c-0.234,0-0.601-0.044-0.805-0.103L247.528,476.924z"/>
		</g>
	</g>
</g>
</svg>
